# xmcd CD database file
#
# Track frame offsets:
#	150
#	19938
#	38367
#	58155
#
# Disc length: 1017 seconds
#
# Revision: 3
# Processed by: cddbd v1.5.1PL0 Copyright (c) Steve Scherf et al.
# Submitted via: CDex 1.40Release
#
DISCID=2903f704
DTITLE=ZONE - glory colors 〜風のトビラ〜
DYEAR=2004
DGENRE=JPop
TTITLE0=glory colors 〜風のトビラ〜
TTITLE1=Once Again
TTITLE2=glory colors 〜風のトビラ〜 (backing track)
TTITLE3=Once Again (backing track)
EXTD=YEAR: 2004
EXTT0=
EXTT1=
EXTT2=
EXTT3=
PLAYORDER=
